<?xml version="1.0" encoding="UTF-8"?><svg xmlns="http://www.w3.org/2000/svg" viewBox="0 0 235.35 155.45"><defs><style>.d{letter-spacing:.02em;}.e{letter-spacing:.02em;}.f{letter-spacing:0em;}.g{letter-spacing:.01em;}.h,.i{opacity:.44;}.j{letter-spacing:0em;}.k{font-family:LuckiestGuy-Regular, Luckiest Guy;font-size:37.34px;}.k,.i{fill:#a33a19;}</style></defs><g id="a"/><g id="b"><g id="c"><g><g class="h"><text class="k" transform="translate(0 142.4) scale(.98 1)"><tspan class="j" x="0" y="0">c</tspan><tspan class="f" x="19.43" y="0">o</tspan><tspan class="e" x="43.51" y="0">ming so</tspan><tspan class="g" x="190.92" y="0">o</tspan><tspan class="d" x="215.13" y="0">n</tspan></text></g><path class="i" d="M145.74,21.65c-.8-12.26-9.1-21.65-18.58-21.65h-10.25c-9.48,0-17.78,9.39-18.58,21.65-7.65,.48-14.35,7.29-15.2,15.98l-3.55,36.27c-1.1,11.27,5.7,20.84,15.25,20.84h54.42c9.55,0,16.35-9.57,15.25-20.84l-3.55-36.27c-.85-8.69-7.56-15.5-15.2-15.98Zm-27.61-9.35h7.8c3.91,0,7.26,4,7.99,9.31h-23.78c.72-5.31,4.08-9.31,7.99-9.31Zm11.18,55.3c.63,2.17-1,4.35-3.26,4.35h-11.79c-2.28,0-3.91-2.2-3.25-4.38l2.53-8.4c-1.69-1.7-2.68-4.01-2.6-6.53,.16-4.97,4.47-8.9,9.63-8.9s9.44,3.93,9.55,8.9c.06,2.74-1.15,5.23-3.14,6.97l2.33,7.99Z"/></g></g></g></svg>